Coordinates
version=1
nRows=16
nColumns=40
inDegrees=yes

Units are S.I. units (second, meters, Newtons, ...)
If the header above contains a line with 'inDegrees', this indicates whether rotational values are in degrees (yes) or radians (no).

endheader
time	pelvis_tilt	pelvis_list	pelvis_rotation	pelvis_tx	pelvis_ty	pelvis_tz	hip_flexion_r	hip_adduction_r	hip_rotation_r	knee_angle_r	knee_angle_r_beta	ankle_angle_r	subtalar_angle_r	mtp_angle_r	hip_flexion_l	hip_adduction_l	hip_rotation_l	knee_angle_l	knee_angle_l_beta	ankle_angle_l	subtalar_angle_l	mtp_angle_l	lumbar_extension	lumbar_bending	lumbar_rotation	arm_flex_r	arm_add_r	arm_rot_r	elbow_flex_r	pro_sup_r	wrist_flex_r	wrist_dev_r	arm_flex_l	arm_add_l	arm_rot_l	elbow_flex_l	pro_sup_l	wrist_flex_l	wrist_dev_l
      0.36000000	      3.18491792	      3.84234199	      3.86990434	     -0.70354837	      0.96926782	      0.24224790	     15.39122393	     -8.90370340	     -7.68551110	     49.31168752	      0.86065131	      8.39067255	      0.00000000	      0.00000000	      0.96312631	      6.12165176	      2.27282544	     15.84362270	      0.27652338	      8.20120604	      0.00000000	      0.00000000	    -18.15380323	     -6.36007603	     -6.21490988	    -13.29871438	     -3.58406927	     -9.57078124	     45.45697499	     82.66879525	      4.95643559	     10.45671984	     -3.79620634	     -6.58546375	    -10.42712513	     52.71414985	     88.85033762	     -2.20782338	     12.17896980
      0.37000000	      2.99277731	      3.95954009	      3.86936791	     -0.69295024	      0.96881381	      0.24190176	     16.46934259	     -8.92183424	     -7.97573866	     47.23002798	      0.82431949	      8.51043119	      0.00000000	      0.00000000	      0.28755131	      6.25727375	      2.26945348	     15.50423927	      0.27060002	      8.57099849	      0.00000000	      0.00000000	    -17.98976227	     -6.44004753	     -6.27365645	    -13.66026558	     -3.47495776	     -9.75995334	     45.24728912	     82.60545629	      4.87938421	     10.45666710	     -2.96349037	     -6.57788461	    -10.77942799	     53.63563854	     88.79735616	     -2.24836451	     12.08464503
      0.38000000	      2.80128086	      3.99804538	      3.87312315	     -0.68222025	      0.96824702	      0.24168687	     17.44618582	     -8.78991012	     -8.26673142	     44.94288542	      0.78440133	      8.62949018	      0.00000000	      0.00000000	     -0.45684541	      6.30420838	      2.28896166	     15.01641953	      0.26208596	      8.99312280	      0.00000000	      0.00000000	    -17.79756205	     -6.43711190	     -6.38271141	    -13.95555947	     -3.32212298	    -10.05767678	     44.97770392	     82.50580367	      4.78300377	     10.43925987	     -2.19953302	     -6.55850577	    -11.22018426	     54.55167739	     88.74313494	     -2.31028335	     12.00366798
      0.39000000	      3.39201077	      3.27684834	      4.12372239	     -0.67145309	      0.96902337	      0.24129645	     17.24398854	     -7.82519471	     -9.17216892	     42.02073515	      0.73340018	      8.35976473	      0.00000000	      0.00000000	     -2.07341068	      5.45587520	      2.58227613	     14.35282321	      0.25050402	      9.56963694	      0.00000000	      0.00000000	    -18.50013641	     -5.51991103	     -6.88143861	    -13.86298327	     -3.33638725	     -9.94373922	     44.52129617	     82.27383533	      4.63415076	     10.16257025	     -1.65287082	     -6.33275855	    -12.30263454	     55.84561157	     88.72906792	     -2.54856909	     12.02522446
      0.40000000	      3.07204335	      3.52582382	      4.07634738	     -0.66084230	      0.96793377	      0.24117783	     18.28003845	     -7.85540236	     -9.29616172	     39.56504746	      0.69054035	      8.26416864	      0.00000000	      0.00000000	     -2.65990557	      5.73352350	      2.49615207	     13.93205601	      0.24316025	      9.90541721	      0.00000000	      0.00000000	    -18.21569718	     -5.74206935	     -6.92644836	    -14.18553260	     -3.23918027	    -10.09747560	     44.39925675	     82.21632453	      4.57414618	     10.17996311	     -0.86909488	     -6.39615974	    -12.51873548	     56.73848124	     88.66577782	     -2.56790478	     11.94494912
      0.41000000	      3.00227043	      3.26222057	      3.90807619	     -0.65002697	      0.96731228	      0.24164025	     18.86767758	     -7.15541782	     -9.26993251	     36.65690257	      0.63978364	      7.86645870	      0.00000000	      0.00000000	     -3.60282924	      5.41849167	      2.34606462	     13.22713974	      0.23085714	     10.21018567	      0.00000000	      0.00000000	    -18.10476697	     -5.47582932	     -6.93786560	    -14.21324774	     -3.12920586	    -10.24970664	     43.93757636	     82.11534214	      4.51231986	     10.17000690	     -0.22696876	     -6.38780068	    -13.01220131	     57.63169714	     88.59581485	     -2.66078042	     11.89820672
      0.42000000	      3.06379784	      3.05817831	      3.72924561	     -0.63929637	      0.96673944	      0.24184543	     19.23813977	     -6.53420411	     -9.25776261	     33.65064548	      0.58731456	      7.27238075	      0.00000000	      0.00000000	     -4.62043083	      5.17683131	      2.06757274	     12.68975427	      0.22147799	     10.56534591	      0.00000000	      0.00000000	    -18.21811714	     -5.22528460	     -6.88983368	    -14.28926403	     -3.18743524	    -10.10733239	     43.69827826	     82.07970780	      4.54174453	     10.15265314	      0.43615742	     -6.35738424	    -13.38457012	     58.63242602	     88.54073296	     -2.74145982	     11.80927558
      0.43000000	      3.15065409	      2.90027499	      3.53724693	     -0.62849035	      0.96607519	      0.24223258	     19.50079911	     -5.92529545	     -9.14406120	     30.56577882	      0.53347348	      6.62054788	      0.00000000	      0.00000000	     -5.66621403	      4.97403066	      1.72264393	     12.16497442	      0.21231886	     10.89850259	      0.00000000	      0.00000000	    -18.36731341	     -5.02735656	     -6.83776232	    -14.38342049	     -3.24347963	     -9.90962513	     43.56110922	     82.06653082	      4.61941533	     10.15495861	      1.08346496	     -6.38080974	    -13.70542465	     59.59973307	     88.48519224	     -2.82143265	     11.69573193
      0.44000000	      3.14149758	      2.81344988	      3.31145304	     -0.61769053	      0.96514586	      0.24267210	     19.80281743	     -5.36362975	     -8.81556553	     27.45251906	      0.47913685	      5.96549888	      0.00000000	      0.00000000	     -6.58998231	      4.86371158	      1.44715466	     11.69505644	      0.20411724	     11.18534595	      0.00000000	      0.00000000	    -18.40831691	     -4.92060728	     -6.74322125	    -14.46037800	     -3.28940241	     -9.77878266	     43.41236085	     82.08904878	      4.71479327	     10.20396082	      1.71572380	     -6.44418399	    -13.89465844	     60.51830733	     88.42633417	     -2.87654108	     11.56188707
      0.45000000	      3.10323907	      2.75169682	      3.07574345	     -0.60685050	      0.96406241	      0.24315638	     20.05980099	     -4.82521305	     -8.35220115	     24.33224659	      0.42467782	      5.28136250	      0.00000000	      0.00000000	     -7.46277216	      4.78506319	      1.15479557	     11.27538710	      0.19679263	     11.45880691	      0.00000000	      0.00000000	    -18.42131126	     -4.83656225	     -6.62376791	    -14.52809915	     -3.34170521	     -9.64880120	     43.28876031	     82.16145465	      4.84501137	     10.27923895	      2.33260064	     -6.52190970	    -14.02163616	     61.39341849	     88.36957055	     -2.91657840	     11.40523053
      0.46000000	      2.93678385	      2.74334306	      2.86954782	     -0.59591117	      0.96267852	      0.24360375	     20.38863189	     -4.36707990	     -7.76351221	     21.27824460	      0.37137543	      4.53279904	      0.00000000	      0.00000000	     -8.16941506	      4.76722268	      0.91000958	     10.93382462	      0.19083124	     11.71341125	      0.00000000	      0.00000000	    -18.26892192	     -4.82803143	     -6.49370861	    -14.60157680	     -3.39451998	     -9.52945273	     43.09649346	     82.26413645	      4.93804474	     10.36181679	      2.93465028	     -6.60628305	    -14.06995184	     62.19552412	     88.30355017	     -2.92113654	     11.27087603
      0.47000000	      2.71515974	      2.86640320	      2.72845894	     -0.58501652	      0.96109255	      0.24395591	     20.72948178	     -4.10246106	     -7.11176079	     18.39869519	      0.32111781	      4.01939042	      0.00000000	      0.00000000	     -8.76418460	      4.88553827	      0.83406687	     10.72177130	      0.18713021	     11.98955211	      0.00000000	      0.00000000	    -18.09013781	     -4.87449694	     -6.52507814	    -14.65968697	     -3.40789044	     -9.46419448	     43.06186048	     82.33638190	      5.00128651	     10.40877737	      3.48520314	     -6.78647673	    -14.03710409	     62.91389826	     88.26582034	     -2.90289683	     11.15610250
      0.48000000	      2.85462476	      2.72842619	      2.43977449	     -0.57369123	      0.95999994	      0.24445561	     20.58172440	     -3.54802727	     -6.57506166	     15.57711758	      0.27187199	      3.21952352	      0.00000000	      0.00000000	     -9.76922771	      4.72620264	      0.42384901	     10.48095647	      0.18292720	     12.24198535	      0.00000000	      0.00000000	    -18.26680907	     -4.69086649	     -6.35319832	    -14.68014282	     -3.57045203	     -9.22204383	     43.01089585	     82.52922897	      5.20457734	     10.49183884	      3.94211515	     -6.82601684	    -14.17110626	     63.76335880	     88.21870902	     -2.91596954	     10.93970772
      0.49000000	      2.67524471	      2.85832328	      2.35111463	     -0.56249088	      0.95831441	      0.24473970	     20.79605694	     -3.38574008	     -6.03122803	     13.16284042	      0.22973490	      2.75049808	      0.00000000	      0.00000000	    -10.34644982	      4.83225770	      0.45743863	     10.44305860	      0.18226576	     12.50995079	      0.00000000	      0.00000000	    -18.10968240	     -4.74417803	     -6.37746319	    -14.73642148	     -3.59822115	     -9.18296567	     42.95546258	     82.60677814	      5.26939939	     10.55071946	      4.41721376	     -6.98165158	    -14.09661867	     64.45149304	     88.18568730	     -2.88860723	     10.82503772
      0.50000000	      2.48542057	      3.01828879	      2.26250012	     -0.55097522	      0.95649176	      0.24504027	     21.03992974	     -3.30612054	     -5.76794820	     11.18583087	      0.19522958	      2.58157081	      0.00000000	      0.00000000	    -10.89764251	      4.96209072	      0.40369782	     10.47972131	      0.18290564	     12.78697548	      0.00000000	      0.00000000	    -17.89950888	     -4.81604398	     -6.43204247	    -14.84797861	     -3.65285705	     -9.13594003	     43.03272182	     82.66161551	      5.31221409	     10.56911367	      4.79495659	     -7.15522559	    -14.01178144	     65.08219756	     88.17393466	     -2.85779589	     10.72638654
      0.51000000	      2.46802111	      3.01061560	      2.21413956	     -0.53958749	      0.95502974	      0.24525758	     21.05151946	     -3.08249871	     -5.28978009	      9.45556990	      0.16503083	      2.09009762	      0.00000000	      0.00000000	    -11.56812649	      4.89455714	      0.39080333	     10.60917216	      0.18516499	     13.05802921	      0.00000000	      0.00000000	    -17.95125153	     -4.67796090	     -6.48684394	    -14.81096574	     -3.74046100	     -9.07862615	     42.95938089	     82.75792723	      5.37888969	     10.60313296	      5.16959096	     -7.26626540	    -13.98468581	     65.75290396	     88.13922340	     -2.83618570	     10.58537816
